<svg xmlns="http://www.w3.org/2000/svg" xmlns:xlink="http://www.w3.org/1999/xlink" width="133.65" height="115.827" viewBox="0 0 133.65 115.827">
  <defs>
    <clipPath id="clip-path">
      <rect id="Rectángulo_1186" data-name="Rectángulo 1186" width="133.65" height="115.827" fill="none"/>
    </clipPath>
  </defs>
  <g id="Grupo_4080" data-name="Grupo 4080" transform="translate(0 0)">
    <g id="Grupo_2884" data-name="Grupo 2884" transform="translate(0 0)" clip-path="url(#clip-path)">
      <path id="Trazado_235" data-name="Trazado 235" d="M10.926,62.724C9.911,61.048,9.16,59.281,8.19,57.471,7.88,56.544,7.262,55.793,7,54.822c-1.325-2.912-2.781-5.606-4.238-8.3a15.73,15.73,0,0,0-1.148-2.472,5.081,5.081,0,0,1-.22-2.736,6.308,6.308,0,0,1,.75-1.9c.22-.619.927-1.1,1.28-1.59,2.251-1.456,4.768-1.942,7.151-3.178.839-.441,2.12-.75,3-1.148a67.825,67.825,0,0,1,7.594-3.222c5.165-2.252,10.329-4.237,15.494-6.49A16.675,16.675,0,0,0,39.8,22.641C50.524,18.093,61.207,13.9,71.36,9.442c5.033-1.943,10.6-4.636,15.495-6.535A31.449,31.449,0,0,1,89.9,1.671a8.89,8.89,0,0,1,5.563.132c.263.354.707.22.971.531.4.22.617.618,1.06.706A11.633,11.633,0,0,1,99.48,5.512c.529,1.1,24.148,48.163,24.721,49.221.748,1.679,4.59,9.448,4.943,10.11.795,2.075,2.253,3.841,2.869,5.871a9.875,9.875,0,0,1,.267,2.34v.4c-.221,4.813-4.857,5.828-8.83,7.595-1.678.661-3.09,1.323-4.636,1.854-8.166,3.31-25.824,10.771-26.532,11.08-3.265,1.237-6.31,2.559-9.49,3.971-4.944,2.075-10.329,4.372-15.185,6.313-1.413.749-3,1.149-4.326,1.9-2.738.973-15.363,6.27-19.292,7.9-3,1.191-6.4-.531-8.167-2.428-1.325-1.722-1.678-3.8-2.957-5.52-.177-.7-.574-1.1-.838-1.854-.531-1.1-1.149-2.295-1.722-3.223-2.516-5.12-5.077-10.417-7.813-15.583-1.546-3.487-3.489-6.18-5.033-9.534Z" transform="translate(0.045 0.045)" fill="#fff"/>
      <path id="Trazado_236" data-name="Trazado 236" d="M10.926,62.724C9.911,61.048,9.16,59.281,8.19,57.471,7.88,56.544,7.262,55.793,7,54.822c-1.325-2.912-2.781-5.606-4.238-8.3a15.73,15.73,0,0,0-1.148-2.472,5.081,5.081,0,0,1-.22-2.736,6.308,6.308,0,0,1,.75-1.9c.22-.619.927-1.1,1.28-1.59,2.251-1.456,4.768-1.942,7.151-3.178.839-.441,2.12-.75,3-1.148a67.825,67.825,0,0,1,7.594-3.222c5.165-2.252,10.329-4.237,15.494-6.49A16.675,16.675,0,0,0,39.8,22.641C50.524,18.093,61.207,13.9,71.36,9.442c5.033-1.943,10.6-4.636,15.495-6.535A31.449,31.449,0,0,1,89.9,1.671a8.89,8.89,0,0,1,5.563.132c.263.354.707.22.971.531.4.22.617.618,1.06.706A11.633,11.633,0,0,1,99.48,5.512c.529,1.1,24.148,48.163,24.721,49.221.748,1.679,4.59,9.448,4.943,10.11.795,2.075,2.253,3.841,2.869,5.871a9.875,9.875,0,0,1,.267,2.34v.4c-.221,4.813-4.857,5.828-8.83,7.595-1.678.661-3.09,1.323-4.636,1.854-8.166,3.31-25.824,10.771-26.532,11.08-3.265,1.237-6.31,2.559-9.49,3.971-4.944,2.075-10.329,4.372-15.185,6.313-1.413.749-3,1.149-4.326,1.9-2.738.973-15.363,6.27-19.292,7.9-3,1.191-6.4-.531-8.167-2.428-1.325-1.722-1.678-3.8-2.957-5.52-.177-.7-.574-1.1-.838-1.854-.531-1.1-1.149-2.295-1.722-3.223-2.516-5.12-5.077-10.417-7.813-15.583-1.546-3.487-3.489-6.18-5.033-9.534Z" transform="translate(0.045 0.045)" fill="none" stroke="#fff" stroke-width="2.559"/>
      <path id="Trazado_237" data-name="Trazado 237" d="M94.676,2.306c.266.354.707.22.973.53.4.221.617.619,1.059.707a11.651,11.651,0,0,1,1.987,2.473c.529,1.1,24.146,48.162,24.721,49.22.749,1.678,4.59,9.448,4.943,10.11.795,2.075,2.253,3.841,2.869,5.87,1.466,5.4-1.749,6.123-7.834,8.63-1.678.661-3.09,1.324-4.636,1.855-8.166,3.31-25.825,10.771-26.532,11.08-3.265,1.235-6.31,2.559-9.491,3.971-4.943,2.075-10.329,4.371-15.185,6.313-1.413.749-3,1.147-4.326,1.9-2.736.973-15.362,6.27-19.291,7.9-3,1.192-5.429.686-7.2-1.212-1.324-1.721-1.678-3.8-2.958-5.518-.176-.707-.573-1.1-.838-1.854a35.973,35.973,0,0,0-1.722-3.222c-2.515-5.123-5.076-10.42-7.813-15.584-1.544-3.489-3.487-6.181-5.032-9.536-.043-.618-.53-.309-.043-.618a104.266,104.266,0,0,1,14.3-4.636c4.938-1.333,17.723-2.729,19.027-3.046,2.824-.617,6.046-.617,8.563-1.986A70.981,70.981,0,0,1,65.918,60.4c.265-.486,1.1-.662,1.1-1.368.309-1.1.177-2.208.53-3.311-.442-.883.485-1.544-.485-1.81-1.28-.131-1.148,1.722-1.854,2.34-2.429,2.473-6.577,3-10.155,3.8-2.956.134-6.268.265-8.784,1.1L46.1,60.8l-.045.046c-.132-.485-.088-1.237-.53-1.678-.441-.707-1.589-.573-1.9-1.324,1.943-.442,2.473-2.3,4.282-3a7.77,7.77,0,0,0,2.075-2.12l.034-.644.01.468c.176-.353-.177-.618-.132-.972a1.182,1.182,0,0,0-1.325-.264c-1.015.353-1.5,1.412-2.649,1.544-1.986.795-4.813.662-5.827,2.208A11.071,11.071,0,0,1,33.471,60a50.917,50.917,0,0,1-21.629,2.982c-1.016-1.677-1.767-3.687-2.739-5.5-.308-.927-.927-1.678-1.191-2.649-1.326-2.913-2.782-5.607-4.238-8.3a15.688,15.688,0,0,0-1.148-2.472,5.091,5.091,0,0,1-.22-2.736c.176-.486-.376-.729.021-1.17.221-.619,1.657-1.833,2.01-2.318,2.25-1.457,4.037-1.213,6.422-2.45.839-.441,2.12-.75,3-1.148a67.617,67.617,0,0,1,7.593-3.222c5.165-2.253,10.33-4.238,15.495-6.49,1.015-.219,1.92-1.436,2.891-1.877,10.728-4.547,21.654-8.011,31.808-12.468,5.031-1.943,10.594-4.636,15.495-6.535a31.337,31.337,0,0,1,3.046-1.235,6.127,6.127,0,0,1,4.588-.112" transform="translate(0.076 0.067)" fill="#005e53"/>
      <path id="Trazado_238" data-name="Trazado 238" d="M97.375,5.449c.573,1.237,1.325,2.208,1.766,3.443.619,1.148,1.237,2.252,1.722,3.355.309.087.176.706.529.927.178.485.443.925.619,1.368.618.838,22.47,44.94,23.088,45.69.66,1.766,1.678,3.266,2.383,5.033,0,0,1.766,3.841,2.517,5.076.619,1.192,1.3,4.876-3.222,7.417-2.474,1.148-34.037,14.26-35.493,14.789-2.693,1.015-41.055,17.173-41.275,17.437-2.428.839-4.37,1.766-6.843,2.736-2.207.354-4.679-.176-6-1.808-1.368-2.164-17.127-33.066-17.789-34.743a119.613,119.613,0,0,1,21.7-5.959l11.1-1.5a39.734,39.734,0,0,1,4.989-.838c1.545-.266,3.354-.485,4.325-1.589a10.382,10.382,0,0,1,1.722-1.943c1.943.088,4.5-.132,6.4,0,.088.706-.442,1.279-.53,1.943-.441.883-.838,1.765-1.28,2.738,0,.616-.573.882-.531,1.544-.087.352-.617.441-.44,1.015-.177.53-.574.971-.707,1.5.354.618.839,0,.971-.177.134.221.266.53.619.4.22-.088.707.088.707-.264a.761.761,0,0,0-.574-.574c-.265-.045-.662.176-.618.309-.265-.618.661-.795.4-1.457,0-.574.618-.884.618-1.589.485-.221.661,1.236,1.148.353-.134-.707-1.016-1.325-.531-2.032-.088-.661,1.016-.661.751-1.325a.923.923,0,0,1,.485-.883c.309.4-.353.839-.265,1.414l-.353.352a1.747,1.747,0,0,1,.661.928c.134-.177.531-.442.839-.795a.532.532,0,0,0-.353-.661l-.132.088c.088-.355,0-.927.308-1.237a1.843,1.843,0,0,0,1.545-.265c-.264-.4-.883-.661-.618-1.192.354-.088.795-.264,1.1-.131.176,0,.308.484.308.617-.176.266.177.619-.045.795.088.839-1.014.839-.838,1.679.088.484-.442.926-.044,1.367l.044-.043.132.177.265-.354c.088.132-.132-.662.177-.706-.265-.221.264-.441-.046-.662.4-.75,1.414-1.457.751-2.516-.045-.4.485-.53.838-.4.31.176.265.661.221,1.015-.75.618.132,1.545-.662,2.12l.176.352c.309-.264.927-.177.662-.883-.264-.308-.087-.573-.132-1.014l.089.131c.4-.353.308-1.06.838-1.192.089.4.573.266.795.486a.547.547,0,0,0,1.015-.088l.131.045h-.088c-.043,1.1,1.369,1.412,1.281,2.6.131.132.175.22.4.265L79.188,68c.573.264.4,1.192.971,1.192-.045-.4.265-.928-.264-1.236-.4-.31-.839-.574-.751-1.1.045-.662,1.28-.795.662-1.721a2.252,2.252,0,0,1-.134-.839,1.736,1.736,0,0,1,1.369.264,2.181,2.181,0,0,1-.309,1.9,2.155,2.155,0,0,0-.176,1.809,3.681,3.681,0,0,1,1.28,1.545c.838.22.619,1.458,1.678,1.59a1.167,1.167,0,0,0,.927-.707l-.219-.572c-.354.043-.532.66-1.105.4-.088-.089-.043-.4-.264-.265a2.29,2.29,0,0,1,1.1-1.678,1.128,1.128,0,0,1,1.014.354c.176.573-.353.661-.307,1.148.131.045.573-.046.617-.309a8.025,8.025,0,0,0,.088-1.809c-.264-.134-.573-.4-.883-.221-.353.176-.485.795-1.059.442-.485-.22-.088-1.1-.751-1.1-.219.176-.219.441-.353.661.134.353.927.529.619,1.237-.309.176-.4.572-.839.088-.265-.442-.221-1.237-1.06-1.149a.959.959,0,0,1,0-.971c.353-.221.485-.838,1.1-.661a.77.77,0,0,0,.043-.443l-.529-.352c0-.485,0-.884.441-1.016.354-.088.794.045.618.531a.865.865,0,0,0,.4.926,1.359,1.359,0,0,0,1.192-1.1l-.265-.22-.088.265a.671.671,0,0,1-.707-.529c.619-.663,1.368.706,2.031-.132.178.043.178.043.309.22.309.707-.662.971-.309,1.457.309.131.926-.046.838.529a1.246,1.246,0,0,0,0,.972,2.218,2.218,0,0,1,.484,1.324c-.088.266-.572.795,0,.838.221-.131.178-.44.485-.528a1.239,1.239,0,0,1,.751,1.323c.353.221.4-.219.617-.353.046-.707-.485-1.014-.617-1.545a1.124,1.124,0,0,1-.971-.662c-.266-.573.131-1.147-.309-1.721-.044-.662-.926-1.1-.4-1.81.265,0,.706-.22,1.015,0-.221.972.749.884.971,1.634.221.485-.53.4-.309.837l.662.355c.132-.355.661-.707.4-1.149-.662-.353-.486-1.148-.972-1.589v-.132c.485-.045,1.324-.177,1.5.264,0,.531.573.176.529.8a1.225,1.225,0,0,0,0,1.1c.619.485.354,2.074,1.456,1.544-.307-.132.221-.353-.088-.484-.926-.221-.529-1.414-1.059-1.943.442-.442-.484-1.192.352-1.325.973-.442,1.724.839,2.517,0,1.324-.176,1.1,1.633,2.561,1.5.573.176.926.883,1.5.53,0-.045-.046.22.088.22.927.088.22-1.147.618-1.545-.044-.353,0-.618.309-.706.353-.176.4.265.617.308.4.442.134,1.414.663,1.678.175.661.131.839.661,1.237.574-.308.089-.972,0-1.369-.486-.353-.486-1.06-.794-1.457v-.352a1.239,1.239,0,0,1,.971.132c.22.529.4.662.618,1.191.088.53.662.618.75,1.1l.045.838c.4-.043.883-.354,1.236.045.176.22.088.795.53.618l.134-.221c-.309.4.529,1.149-.266,1.59-.441-.132-.4-.839-.795-.971-.309.176-.573-.089-.883.131.176.4.707.751.971,1.148.221.089.531.266.795.044v-.088a2.876,2.876,0,0,1,.266,1.28c.529-.22,1.014.353.883,1.06-.132.176.043.22,0,.572.219,0,.573.221.838.046h-.043V72.55h.043c-.043.131.045.177.132.22a.324.324,0,0,0,.353-.353.391.391,0,0,0-.353-.4c-.354.354-.354-.221-.618-.308.176-.75-.707-.8-.619-1.545-.617-.795.354-1.413-.441-2.031-.045-.354.176-1.059-.354-1.016a2.626,2.626,0,0,1-1.766-1.632c-.441-.22-.309-.884-.7-1.06,0-.308.4-.354.573-.354.573-.043,1.014.53,1.545.662a2.375,2.375,0,0,0,1.191,1.81c.265-.132.221-.618.043-.75-.219-.4-.926-.618-.529-1.237H104c-.132-.4-.618-.572-.618-1.1.221-.618-.4-.706-.176-1.324-.265-.132.132-1.149-.485-.883-.221.353.264,1.148-.443,1.192a1.413,1.413,0,0,1-.573-1.413c.309.088.22-.31.309-.53-.353-.308-.134-1.015-.573-1.1-.177.176-.443.308-.574,0-.044-.839-1.237-1.767-.442-2.518,0-.749-1.014.046-.926-.794,0-.838-.927-1.412-.442-2.207-.043-.573-.617-.8-.617-1.368-.707-.045-.487-1.016-.973-1.325-.045-.883-.839-1.59-.485-2.3-.441-.177-.573-.661-.795-1.059.046-.486,1.016-.309.838-1.016l.09.045c-.177-.442,0-.662.264-1.1.132-.353.573-.484.4-1.1a.4.4,0,0,0-.529,0c-.222.353-.178.883-.62,1.148.178.265.047.618.088.927l-.661.31c-.043-.355-.572-.444-.4-1.016a.9.9,0,0,0,.485-1.281c.178-.308-.088-.485-.175-.7-.663-.442-1.722-.442-1.9-1.414a14.651,14.651,0,0,1-.748-2.472c.263-.134.572-.31.441-.707-.4-.264-.883-.441-.839-1.059-1.06-.53-1.06-1.767-1.368-2.738.176-.221.53-.045.706.043.619.883,1.061,1.943,1.721,2.827l.134.043.089.088a1.285,1.285,0,0,1,.926.176c-.045.707,1.059.619.971,1.37.309.088.485.484.839.264.087-.088.177-.53,0-.619-.264-.617-1.281.089-1.059-.925-.09-.884-1.28-.134-1.5-.884-.175-1.014-1.456-1.325-1.19-2.472a1.894,1.894,0,0,0-1.811-.663c-.22.044-.264-.265-.307-.308.881-.442-.223-.927.131-1.766-.4-.089-1.1-.308-.839-1.06.354-.308.927-.043,1.237,0,0,.177-.131.574.088.751.088.088.221.043.309.043.176-.131.176-.485.176-.795.795-.043,1.987-.4,2.561.4.266.308-.176,1.236.353,1.324.308-.132.573-.308.486-.751-.045-.307-.442-.441-.442-.706,0-.353.354-.308.661-.308.531-.045.178,1.1.838.662a1.7,1.7,0,0,0-.441-1.192c-.264-.4-.927-.089-1.368-.132-1.9-.177-3.619.088-5.209-.22a6.718,6.718,0,0,1-.53-.972l-.529-1.633c.4-.221.926-.308.971-.794a18.274,18.274,0,0,1,.221-4.459c-.178-.31-.09-.751-.575-.838l-.707-.089a1,1,0,0,0,.221-.794c-.441-.178-1.368.176-1.368-.531-.4-.4.22-.75-.131-1.148.352-.22-.266-.485.131-.706-.265-.354.176-.618-.131-.927-.531-.265-1.06-.75-1.632-.574-.088-.176-.309-.043-.442-.176-.089.353-.177-.131-.309,0-.441.662-1.9.4-1.809,1.456-.045.751.485,2.3-.442,2.516-.442.045-.928-.088-1.06.221.131.573.794.4.927.927l-.045.264a1.391,1.391,0,0,0-1.5-.44l-.309.087-.045,5.651c.22.088.177.353.266.573l-.221-.131c-.618.4-1.986,1.148-1.986,1.148-1.678.971-3.487,1.632-5.3,2.649-.089-.045-.177-.045-.265-.134-.088-.22.176-.352.088-.617l-.353-.177c-1.325,1.633-4.017,2.693-6.18,2.957-.177-.043-.354-.131-.53.089-.265-.265-.485.089-.926-.132a4.971,4.971,0,0,1-2.032-.309c-1.721-.617-3.223-2.208-5.3-1.942,0-.132-.221-.045-.132-.22,0-.531.662-.661.927-1.016a4.249,4.249,0,0,1,.75-.22,18.2,18.2,0,0,0,3.752-.485c2.429-1.413,2.561-4.194,3.046-6.976a3.549,3.549,0,0,0-.131-1.368c-.663.221-.751,1.368-1.59,1.634-1.81,1.412-4.106,1.412-6.224,2.031A5.106,5.106,0,0,0,55.7,29.243c-.618.662-.838-.618-1.633-.706A7.831,7.831,0,0,0,50.8,27.08c-.176.177-.4-.176-.661-.132-1.9-.131-3.31.972-5.3.486-.971.088-1.721-.442-2.781-.618a12.435,12.435,0,0,0-2.428-.927c-.131.485.132.661.176,1.059-.264,2.385.221,4.5,2.075,5.518a6.88,6.88,0,0,0,5.209.353c2.163-.971,3.974-2.647,6.49-2.208,1.766,1.149,1.678,3.09,1.942,5.121-.043,2.031-.4,3.708-.53,5.474-.838.53-34.476,17.306-38.627,19.38-1.324.75-3.046,1.721-4.634.795-1.1-2.561-8.476-17.04-9.006-18.143,0-.177.045-.4-.043-.53A5.33,5.33,0,0,1,4.76,38.515c2.649-.884,28.914-12.008,36.773-15.054,2.207-1.148,48.425-20.13,48.425-20.13a6.135,6.135,0,0,1,5.827.706c.531.485,1.061.927,1.59,1.413" transform="translate(0.094 0.101)" fill="gold"/>
      <path id="Trazado_239" data-name="Trazado 239" d="M84.047,18.61c-.134.662.264,1.722-.4,2.031-.619-.176-.751-1.5-1.811-.927-.088.4-.4.53-.7.662-.266-.132-.309-.4-.266-.706l.045.043a2.578,2.578,0,0,1,.134-1.633,7.42,7.42,0,0,1,2.779-.088Z" transform="translate(2.827 0.626)" fill="gold"/>
      <path id="Trazado_240" data-name="Trazado 240" d="M79.9,22.685c-.089.308.4.706-.043.795-.266.043-.266-.31-.223-.486l.046-.44c-.046.175.22.087.22.131" transform="translate(2.784 0.789)" fill="gold"/>
      <path id="Trazado_241" data-name="Trazado 241" d="M84.713,23.465c-.178.088-.178-.221-.178-.354V23.2l.178-.22c.264.132-.046.265,0,.486" transform="translate(2.957 0.804)" fill="gold"/>
      <path id="Trazado_242" data-name="Trazado 242" d="M80.7,24.908c-.09.266.132.266.264.4a.47.47,0,0,1,.575.045c.087.221.175.484.485.484a1.568,1.568,0,0,0,1.1-.219c.134-.22.134-.4.443-.485a.317.317,0,0,0,.572.045.483.483,0,0,1,.573-.442c.266-.089.309.264.442.353.088.749-.176.972-.22,1.59a26.254,26.254,0,0,1-5.252-.045c-.353-.265-.045-.707-.045-1.015-.308-.353.045-.575.089-.883a.752.752,0,0,1,.972.176" transform="translate(2.781 0.861)" fill="gold"/>
      <path id="Trazado_243" data-name="Trazado 243" d="M80.508,27.462c-.972.838-1.722,2.869-3.356,2.295l-.219.221c-.134-.4-.573-.134-.883-.308a2.53,2.53,0,0,1,.926-.884c1.059-.4,1.986-1.059,3.046-1.456Z" transform="translate(2.66 0.956)" fill="gold"/>
      <path id="Trazado_244" data-name="Trazado 244" d="M80.508,27.462c-.972.838-1.722,2.869-3.356,2.295l-.219.221c-.134-.4-.573-.134-.883-.308a2.53,2.53,0,0,1,.926-.884c1.059-.4,1.986-1.059,3.046-1.456Z" transform="translate(2.66 0.956)" fill="none" stroke="#005e53" stroke-width="0.213"/>
      <path id="Trazado_245" data-name="Trazado 245" d="M83.665,27.9c.043.266-.088.619.131.839l-.131.132a1.333,1.333,0,0,1,.087.883c-.484.309-1.19.131-1.942.088-.352-.4.133-.883.266-1.236.307-.441.221-1.191.97-1.279.309.043.838.043.619.572" transform="translate(2.857 0.956)" fill="gold"/>
      <path id="Trazado_246" data-name="Trazado 246" d="M83.665,27.9c.043.266-.088.619.131.839l-.131.132a1.333,1.333,0,0,1,.087.883c-.484.309-1.19.131-1.942.088-.352-.4.133-.883.266-1.236.307-.441.221-1.191.97-1.279C83.355,27.374,83.884,27.374,83.665,27.9Z" transform="translate(2.857 0.956)" fill="none" stroke="#005e53" stroke-width="0.213"/>
      <path id="Trazado_247" data-name="Trazado 247" d="M85.168,27.9l.75,1.855c-.088.4-.573.176-.75.265l-.838-.177c-.531-.618.088-1.5-.089-2.384a.6.6,0,0,1,.927.441" transform="translate(2.942 0.957)" fill="gold"/>
      <path id="Trazado_248" data-name="Trazado 248" d="M85.168,27.9l.75,1.855c-.088.4-.573.176-.75.265l-.838-.177c-.531-.618.088-1.5-.089-2.384A.6.6,0,0,1,85.168,27.9Z" transform="translate(2.942 0.957)" fill="none" stroke="#005e53" stroke-width="0.213"/>
      <path id="Trazado_249" data-name="Trazado 249" d="M81.845,27.635c-.441.751-.264,1.679-1.014,2.208a3.759,3.759,0,0,1-1.414-.089V29.4a11.88,11.88,0,0,1,2.3-1.985Z" transform="translate(2.778 0.959)" fill="gold"/>
      <path id="Trazado_250" data-name="Trazado 250" d="M81.845,27.635c-.441.751-.264,1.679-1.014,2.208a3.759,3.759,0,0,1-1.414-.089V29.4a11.88,11.88,0,0,1,2.3-1.985Z" transform="translate(2.778 0.959)" fill="none" stroke="#005e53" stroke-width="0.213"/>
      <path id="Trazado_251" data-name="Trazado 251" d="M77.549,30.538a20.619,20.619,0,0,1-2.648,2.87l-5.166.045c-.159-1.43,2.561-2.3,2.561-2.3a4.617,4.617,0,0,0,1.456-.751c1.457.045,2.605-.4,3.8.132" transform="translate(2.439 1.059)" fill="gold"/>
      <path id="Trazado_252" data-name="Trazado 252" d="M77.549,30.538a20.619,20.619,0,0,1-2.648,2.87l-5.166.045c-.159-1.43,2.561-2.3,2.561-2.3a4.617,4.617,0,0,0,1.456-.751C75.209,30.45,76.357,30.009,77.549,30.538Z" transform="translate(2.439 1.059)" fill="none" stroke="#005e53" stroke-width="0.213"/>
      <path id="Trazado_253" data-name="Trazado 253" d="M80.693,30.758a12.572,12.572,0,0,1-1.148,2.605,27.315,27.315,0,0,1-3.8,0c.529-1.1,1.678-1.81,2.561-2.738l.131-.264c.266.043.751.088.927-.089.4.442,1.105.043,1.325.485" transform="translate(2.649 1.059)" fill="gold"/>
      <path id="Trazado_254" data-name="Trazado 254" d="M80.693,30.758a12.572,12.572,0,0,1-1.148,2.605,27.315,27.315,0,0,1-3.8,0c.529-1.1,1.678-1.81,2.561-2.738l.131-.264c.266.043.751.088.927-.089C79.766,30.715,80.474,30.316,80.693,30.758Z" transform="translate(2.649 1.059)" fill="none" stroke="#005e53" stroke-width="0.213"/>
      <path id="Trazado_255" data-name="Trazado 255" d="M81.332,30.486a6.311,6.311,0,0,1,2.384.265,12.41,12.41,0,0,1,.175,2.074h.045c-.219.089.09.619-.307.575-1.059,0-2.252.043-3.354-.045l-.043-.309c.4-.927,1.1-2.561,1.1-2.561" transform="translate(2.806 1.066)" fill="gold"/>
      <path id="Trazado_256" data-name="Trazado 256" d="M81.332,30.486a6.311,6.311,0,0,1,2.384.265,12.41,12.41,0,0,1,.175,2.074h.045c-.219.089.09.619-.307.575-1.059,0-2.252.043-3.354-.045l-.043-.309C80.627,32.119,81.332,30.486,81.332,30.486Z" transform="translate(2.806 1.066)" fill="none" stroke="#005e53" stroke-width="0.213"/>
      <path id="Trazado_257" data-name="Trazado 257" d="M86.224,30.661c.53.486.707,1.546,1.061,2.251.041.22.041.442-.178.486a7.208,7.208,0,0,1-2.78-.266c.176-.925-.311-1.677,0-2.428.529-.308,1.456-.043,1.9-.043" transform="translate(2.946 1.069)" fill="gold"/>
      <path id="Trazado_258" data-name="Trazado 258" d="M86.224,30.661c.53.486.707,1.546,1.061,2.251.041.22.041.442-.178.486a7.208,7.208,0,0,1-2.78-.266c.176-.925-.311-1.677,0-2.428C84.855,30.4,85.783,30.661,86.224,30.661Z" transform="translate(2.946 1.069)" fill="none" stroke="#005e53" stroke-width="0.213"/>
      <path id="Trazado_259" data-name="Trazado 259" d="M90.767,32.713a1.112,1.112,0,0,1-1.368.309c-.043-.088.043-.132.088-.178l-.045-.043c.176-.043.884-.265.8-.75-.045-.309-.4-.573-.088-.882.66,0,.4,1.015.617,1.544" transform="translate(3.126 1.09)" fill="#005e53"/>
      <path id="Trazado_260" data-name="Trazado 260" d="M94.324,32.675l-.617.088c-.088-.265.131-.308.221-.484.352-.088.219.265.4.4" transform="translate(3.277 1.128)" fill="#005e53"/>
      <path id="Trazado_261" data-name="Trazado 261" d="M60.582,36.414a40.388,40.388,0,0,1-5.166,2.649c-.4,0-.352-.4-.352-.706-.178-.22.264-.177.043-.353.308-.266,0-1.236.265-1.722.088-.927.22-1.9.308-2.825a1.2,1.2,0,0,1,1.061-.795c2.427.043,2.472,2.605,3.84,3.753" transform="translate(1.924 1.142)" fill="gold"/>
      <path id="Trazado_262" data-name="Trazado 262" d="M93.791,34.766c-.266-.045-.4.354-.663.177a.789.789,0,0,0-.088-.972c-.219-.265-.617-.088-.838-.22-.573.354-.307.75-.22,1.28l.22.309c.088-.177.309-.045.485,0,.09,0,0,.22.046.308a1,1,0,0,1-1.061-.045,10.338,10.338,0,0,0-.4-1.236c.266-.485.088-1.1.927-.839.088-.219.177-.4.4-.441a2.15,2.15,0,0,1,1.192,1.678" transform="translate(3.192 1.157)" fill="#005e53"/>
      <path id="Trazado_263" data-name="Trazado 263" d="M96.114,35.454c-.266.795,1.325,1.237.352,1.722-.352.795.353,1.015.707,1.368a.152.152,0,0,0-.088.043l.088.266c-.618-.221-.927-.795-1.325-1.28A.951.951,0,0,0,96.2,36.6l-.4-.618-.134.134c-.971-.266-.176-1.9-1.368-1.987-.132-.354.221-.265.309-.53.795.308.573,1.634,1.5,1.854" transform="translate(3.297 1.175)" fill="#005e53"/>
      <path id="Trazado_264" data-name="Trazado 264" d="M88.955,36.947a17.349,17.349,0,0,1,.663,1.809c-1.634.355-3.224,0-4.99.089-.264-.089-.131-.4-.264-.617.219-.22-.266-4.019.219-4.194.883-.178,1.987.219,2.781-.223.928.751.973,2.209,1.59,3.135" transform="translate(2.95 1.183)" fill="gold"/>
      <path id="Trazado_265" data-name="Trazado 265" d="M88.955,36.947a17.349,17.349,0,0,1,.663,1.809c-1.634.355-3.224,0-4.99.089-.264-.089-.131-.4-.264-.617.219-.22-.266-4.019.219-4.194.883-.178,1.987.219,2.781-.223C88.294,34.563,88.338,36.021,88.955,36.947Z" transform="translate(2.95 1.183)" fill="none" stroke="#005e53" stroke-width="0.213"/>
      <path id="Trazado_266" data-name="Trazado 266" d="M69.413,34.031a22.212,22.212,0,0,1,4.856.043c-.045.529-.618.749-.883,1.192-1.28,1.1-2.428,2.427-3.754,3.575-1.059.221-2.6.045-3.531.177H58.377c-.309-.132-.839.132-.883-.308,1.1-.531,2.339-1.192,3.531-1.722,1.28.794,3.134,1.413,4.5.706,1.766-.485,2.693-2.208,3.885-3.663" transform="translate(2.011 1.186)" fill="gold"/>
      <path id="Trazado_267" data-name="Trazado 267" d="M69.413,34.031a22.212,22.212,0,0,1,4.856.043c-.045.529-.618.749-.883,1.192-1.28,1.1-2.428,2.427-3.754,3.575-1.059.221-2.6.045-3.531.177H58.377c-.309-.132-.839.132-.883-.308,1.1-.531,2.339-1.192,3.531-1.722,1.28.794,3.134,1.413,4.5.706C67.293,37.208,68.22,35.486,69.413,34.031Z" transform="translate(2.011 1.186)" fill="none" stroke="#005e53" stroke-width="0.213"/>
      <path id="Trazado_268" data-name="Trazado 268" d="M84.012,34.293c0,.662.4,4.5-.264,4.591L78.1,38.84c-.263-.837.4-1.456.619-2.251.529-.707.618-1.767,1.192-2.472a14.271,14.271,0,0,1,3.884-.043Z" transform="translate(2.729 1.188)" fill="gold"/>
      <path id="Trazado_269" data-name="Trazado 269" d="M84.012,34.293c0,.662.4,4.5-.264,4.591L78.1,38.84c-.263-.837.4-1.456.619-2.251.529-.707.618-1.767,1.192-2.472a14.271,14.271,0,0,1,3.884-.043Z" transform="translate(2.729 1.188)" fill="none" stroke="#005e53" stroke-width="0.213"/>
      <path id="Trazado_270" data-name="Trazado 270" d="M79.21,34.027a26.543,26.543,0,0,1-1.767,4.855c-2.472,0-4.63-.065-7.24-.045l.088-.353c1.634-1.545,3-3,4.68-4.458Z" transform="translate(2.455 1.19)" fill="gold"/>
      <path id="Trazado_271" data-name="Trazado 271" d="M79.21,34.027a26.543,26.543,0,0,1-1.767,4.855c-2.472,0-4.63-.065-7.24-.045l.088-.353c1.634-1.545,3-3,4.68-4.458Z" transform="translate(2.455 1.19)" fill="none" stroke="#005e53" stroke-width="0.213"/>
      <path id="Trazado_272" data-name="Trazado 272" d="M94.625,35.786c0,.266-.354.221-.573.309-.266-.132-.09-.265-.131-.618.351-.089.439.176.7.308" transform="translate(3.284 1.24)" fill="#005e53"/>
      <path id="Trazado_273" data-name="Trazado 273" d="M92.9,36.595c-.176-.132-.131-.177,0-.265Z" transform="translate(3.245 1.271)" fill="#005e53"/>
      <path id="Trazado_274" data-name="Trazado 274" d="M93.714,37.3a.622.622,0,0,1-.219-.617l.087-.31c.53.132-.087.485.132.927" transform="translate(3.269 1.272)" fill="#005e53"/>
      <path id="Trazado_275" data-name="Trazado 275" d="M95.05,37.807c.178.573,1.061.883.617,1.633v.4h-.307c0-.662.045-1.236-.4-1.633-.4-.088-.751-.485-.442-.883.266,0,.176-.486.53-.265Z" transform="translate(3.302 1.294)" fill="#005e53"/>
      <path id="Trazado_276" data-name="Trazado 276" d="M98.125,39.333c-.266.442,0,.926.219,1.325.354.706.927-.354.884.353a1.341,1.341,0,0,1-.573,1.28c.441-1.148-.751-.972-1.281-1.28,0-.4.485-.574.308-.883.221-.441-.088-1.015.353-1.324.178-.089.044.352.09.529" transform="translate(3.406 1.357)" fill="#005e53"/>
      <path id="Trazado_277" data-name="Trazado 277" d="M91.468,39.5c-.134.134-.4.354-.619.178a.557.557,0,0,1,.309-.707c.264,0,.353.265.309.529" transform="translate(3.176 1.363)" fill="#005e53"/>
      <path id="Trazado_278" data-name="Trazado 278" d="M68.262,39.4l.354.221c-1.016,1.325-2.605,2.6-3.708,3.84-.265.531-.75.662-1.148,1.148-.441.309-.751,0-1.237.266-1.412-.443-2.251.132-3.707-.176-.884-.707-2.252-.619-3.223-.84-.4-.485-.088-1.456-.485-1.986.265-.353-.266-.53.043-.838-.309-.354.177-.619,0-1.1.265-.573,1.015-.4,1.59-.485,2.912,0,6.356.043,9.051-.045l.176.045Z" transform="translate(1.925 1.378)" fill="gold"/>
      <path id="Trazado_279" data-name="Trazado 279" d="M68.262,39.4l.354.221c-1.016,1.325-2.605,2.6-3.708,3.84-.265.531-.75.662-1.148,1.148-.441.309-.751,0-1.237.266-1.412-.443-2.251.132-3.707-.176-.884-.707-2.252-.619-3.223-.84-.4-.485-.088-1.456-.485-1.986.265-.353-.266-.53.043-.838-.309-.354.177-.619,0-1.1.265-.573,1.015-.4,1.59-.485,2.912,0,6.356.043,9.051-.045l.176.045Z" transform="translate(1.925 1.378)" fill="none" stroke="#005e53" stroke-width="0.213"/>
      <path id="Trazado_280" data-name="Trazado 280" d="M77.114,39.446c.178.927-.442,1.634-.661,2.34a8.664,8.664,0,0,0-.751,2.031c-.308.309-.264.928-.882.928-1.679.043-3.576-.045-5.21.043a2.3,2.3,0,0,0-1.1-.043c-1.279-.09-2.781.043-3.973-.09-.176-.265.089-.353.132-.529,1.722-1.5,3.09-3.134,4.723-4.637,1.546-.043,3.621-.088,5.033-.131.883.131,1.722,0,2.693.088" transform="translate(2.255 1.377)" fill="gold"/>
      <path id="Trazado_281" data-name="Trazado 281" d="M77.114,39.446c.178.927-.442,1.634-.661,2.34a8.664,8.664,0,0,0-.751,2.031c-.308.309-.264.928-.882.928-1.679.043-3.576-.045-5.21.043a2.3,2.3,0,0,0-1.1-.043c-1.279-.09-2.781.043-3.973-.09-.176-.265.089-.353.132-.529,1.722-1.5,3.09-3.134,4.723-4.637,1.546-.043,3.621-.088,5.033-.131C75.3,39.489,76.143,39.358,77.114,39.446Z" transform="translate(2.255 1.377)" fill="none" stroke="#005e53" stroke-width="0.213"/>
      <path id="Trazado_282" data-name="Trazado 282" d="M84.058,39.445c.309,1.1,0,2.65.266,3.753-.132.53.309,1.456-.354,1.5-2.779.088-5.782-.134-8.432-.046-.264-.308.221-.484.221-.794.53-1.325,1.06-2.605,1.59-3.884.353-1.1,1.59-.265,2.517-.575Z" transform="translate(2.639 1.377)" fill="gold"/>
      <path id="Trazado_283" data-name="Trazado 283" d="M84.058,39.445c.309,1.1,0,2.65.266,3.753-.132.53.309,1.456-.354,1.5-2.779.088-5.782-.134-8.432-.046-.264-.308.221-.484.221-.794.53-1.325,1.06-2.605,1.59-3.884.353-1.1,1.59-.265,2.517-.575Z" transform="translate(2.639 1.377)" fill="none" stroke="#005e53" stroke-width="0.213"/>
      <path id="Trazado_284" data-name="Trazado 284" d="M89.839,39.446l.309.309c.53,1.722,1.456,3,1.722,4.856-2.163.043-4.68.134-6.843.089-.573,0-.485-.53-.485-.972a13.19,13.19,0,0,0-.22-2.781c.22-.53,0-.926.22-1.458l.707-.131c1.59.177,3.046-.177,4.59.088" transform="translate(2.949 1.376)" fill="gold"/>
      <path id="Trazado_285" data-name="Trazado 285" d="M89.839,39.446l.309.309c.53,1.722,1.456,3,1.722,4.856-2.163.043-4.68.134-6.843.089-.573,0-.485-.53-.485-.972a13.19,13.19,0,0,0-.22-2.781c.22-.53,0-.926.22-1.458l.707-.131C86.839,39.535,88.3,39.182,89.839,39.446Z" transform="translate(2.949 1.376)" fill="none" stroke="#005e53" stroke-width="0.213"/>
      <path id="Trazado_286" data-name="Trazado 286" d="M92.708,39.577c-.266.177.043.442.088.662a.732.732,0,0,0,1.014.264c.266-.175.31-.44.485-.66h.53c.134.883-1.015.837-1.5,1.1-.662-.4-.707.794-1.368.308a3.572,3.572,0,0,1,.618-1.855Z" transform="translate(3.216 1.378)" fill="#005e53"/>
      <path id="Trazado_287" data-name="Trazado 287" d="M96.593,39.742c0,.618-.4.972-.619,1.457-.354-.132-.264-.354-.132-.707-.309-.088.132-.132,0-.353.266-.043.442-.354.751-.4" transform="translate(3.348 1.39)" fill="#005e53"/>
      <path id="Trazado_288" data-name="Trazado 288" d="M53.006,42.522c0,1.5-1.9,1.281-2.959,1.634h0c-1.456-.264-2.78,1.148-4.325.486.043-.442.706-.4.926-.707,2.075-.838,4.106-2.031,6.225-2.913.617.308,0,1.015.132,1.5" transform="translate(1.599 1.435)" fill="gold"/>
      <path id="Trazado_289" data-name="Trazado 289" d="M95.3,41.408c.134.4-.264.53-.442.662-.572-.795-1.059,1.015-1.278-.265v-.353c.354-.265.573.75,1.015.176a.45.45,0,0,1,.7-.22" transform="translate(3.273 1.445)" fill="#005e53"/>
      <path id="Trazado_290" data-name="Trazado 290" d="M97.189,42.49c-.309.266-.485-.043-.839-.043-.131-.4.222-.309.31-.529.219.131.75.131.529.572" transform="translate(3.369 1.466)" fill="#005e53"/>
      <path id="Trazado_291" data-name="Trazado 291" d="M100.838,43.583c0,.883,1.368.883,1.014,1.766l-.353.4c-.264-.178.353-1.281-.442-1.37-.263.046-.661.089-.748.4-.135.707.7.707.529,1.414a.679.679,0,0,1-.839-.265,3.557,3.557,0,0,1,.132-1.546.653.653,0,0,0,.088-.794c-.045-.22-.4-.308-.618-.22-.176.4-.795.309-.97.707-.354-.089-.663-.309-.53-.795l.088-.308c.264.088.309.66.883.572.573-.264.441-1.809,1.237-1.1-.135.619.219.839.529,1.148" transform="translate(3.43 1.478)" fill="#005e53"/>
      <path id="Trazado_292" data-name="Trazado 292" d="M96.173,43.569l.132.043-.176.223a10.32,10.32,0,0,0-1.017-.62c.132-.219.178-.484.442-.572a.991.991,0,0,1,.619.926" transform="translate(3.326 1.491)" fill="#005e53"/>
      <path id="Trazado_293" data-name="Trazado 293" d="M92.042,43.287v-.132l.131.043Z" transform="translate(3.219 1.509)" fill="gold"/>
      <path id="Trazado_294" data-name="Trazado 294" d="M92.529,43.983c-.088.132-.176.132-.309.044-.045-.177-.4-.353-.088-.53.266-.265.751.22.4.485" transform="translate(3.218 1.519)" fill="gold"/>
      <path id="Trazado_295" data-name="Trazado 295" d="M97.609,43.761v.308l-.043-.043c-.708,1.1,1.148,1.235.043,2.031v.4c-.485.045-.264-.484-.617-.573a2.2,2.2,0,0,0,.175-1.678c-.088-.132-.351-.485-.088-.619.176-.22.486-.043.53.178" transform="translate(3.391 1.521)" fill="#005e53"/>
      <path id="Trazado_296" data-name="Trazado 296" d="M95.87,44.791c-.131.484.795.883,0,1.1,0-.706-1.325-.75-.838-1.544Z" transform="translate(3.32 1.551)" fill="#005e53"/>
      <path id="Trazado_297" data-name="Trazado 297" d="M99.057,44.833c-.178.131-.09.484-.441.4-.266-.265.043-.53.087-.795.31-.177.176.177.354.4" transform="translate(3.445 1.552)" fill="#005e53"/>
      <path id="Trazado_298" data-name="Trazado 298" d="M93.761,48.739a9.516,9.516,0,0,1,.927,2.868c-2.957.178-6.931.046-9.844.089-.4-.749-.088-2.781-.266-3.664l-.043-1.06c.043.044.088,0,.088-.043l-.088-.22.043.088c-.176-.265.178-.707-.043-.972.265-1.147,2.031-.441,3.089-.618,1.28-.132,2.783,0,3.973-.132a.372.372,0,0,0,.619-.045,32.959,32.959,0,0,1,1.544,3.709" transform="translate(2.956 1.575)" fill="gold"/>
      <path id="Trazado_299" data-name="Trazado 299" d="M93.761,48.739a9.516,9.516,0,0,1,.927,2.868c-2.957.178-6.931.046-9.844.089-.4-.749-.088-2.781-.266-3.664l-.043-1.06c.043.044.088,0,.088-.043l-.088-.22.043.088c-.176-.265.178-.707-.043-.972.265-1.147,2.031-.441,3.089-.618,1.28-.132,2.783,0,3.973-.132a.372.372,0,0,0,.619-.045A32.959,32.959,0,0,1,93.761,48.739Z" transform="translate(2.956 1.575)" fill="none" stroke="#005e53" stroke-width="0.213"/>
      <path id="Trazado_300" data-name="Trazado 300" d="M69.065,45.2c1.943.043,3.708.132,5.827.088l.221.31c-.573,1.236-1.148,2.736-1.678,4.017a6.733,6.733,0,0,1-.309.7,2.27,2.27,0,0,1-.837,1.5c-1.856-.132-4.195.221-6.049-.176a1.438,1.438,0,0,0-1.324-.619c-1.414.088-1.987,1.855-2.208,2.738-.618.484-1.1,1.148-1.855,1.677a14.546,14.546,0,0,1-4.636,1.414l-.131-.132a15.933,15.933,0,0,0,2.075-4.636c.485.354.529,1.413.795,2.031.529.265.573,1.324,1.368.926a.993.993,0,0,0,0-1.235,35.589,35.589,0,0,1-1.06-4.283l.574-1.545c.176-.088.219,0,.441-.043.53,1.06-.043,2.825.53,3.884A2.072,2.072,0,0,0,61.957,53.5c.4-.045.309-.442.485-.707-.045-.661-.529-1.147-.529-1.678-.221-.352-.089-.926-.134-1.368.838,0,1.016.795,1.678.928a.79.79,0,0,0,.441-.707c-.176-1.1-1.236-1.766-2.119-2.473-.132-.573.486-.794.662-1.147.265.042.22-.223.354-.31,1.324-1.455,3.707-.484,5.428-.838a2.713,2.713,0,0,0,.839,0" transform="translate(1.962 1.581)" fill="gold"/>
      <path id="Trazado_301" data-name="Trazado 301" d="M69.065,45.2c1.943.043,3.708.132,5.827.088l.221.31c-.573,1.236-1.148,2.736-1.678,4.017a6.733,6.733,0,0,1-.309.7,2.27,2.27,0,0,1-.837,1.5c-1.856-.132-4.195.221-6.049-.176a1.438,1.438,0,0,0-1.324-.619c-1.414.088-1.987,1.855-2.208,2.738-.618.484-1.1,1.148-1.855,1.677a14.546,14.546,0,0,1-4.636,1.414l-.131-.132a15.933,15.933,0,0,0,2.075-4.636c.485.354.529,1.413.795,2.031.529.265.573,1.324,1.368.926a.993.993,0,0,0,0-1.235,35.589,35.589,0,0,1-1.06-4.283l.574-1.545c.176-.088.219,0,.441-.043.53,1.06-.043,2.825.53,3.884A2.072,2.072,0,0,0,61.957,53.5c.4-.045.309-.442.485-.707-.045-.661-.529-1.147-.529-1.678-.221-.352-.089-.926-.134-1.368.838,0,1.016.795,1.678.928a.79.79,0,0,0,.441-.707c-.176-1.1-1.236-1.766-2.119-2.473-.132-.573.486-.794.662-1.147.265.042.22-.223.354-.31,1.324-1.455,3.707-.484,5.428-.838A2.713,2.713,0,0,0,69.065,45.2Z" transform="translate(1.962 1.581)" fill="none" stroke="#005e53" stroke-width="0.213"/>
      <path id="Trazado_302" data-name="Trazado 302" d="M83.934,45.2c.441.043.484.4.572.707-.353.264.266.484-.088.795.354.441-.221.749.088,1.148h-.043l.043,3.751-.265.134-11.52.088c-.045-.926.617-1.942,1.014-3,.309-.663.619-1.413.927-2.119a4.8,4.8,0,0,1,.574-1.5l.176.088Z" transform="translate(2.543 1.581)" fill="gold"/>
      <path id="Trazado_303" data-name="Trazado 303" d="M83.934,45.2c.441.043.484.4.572.707-.353.264.266.484-.088.795.354.441-.221.749.088,1.148h-.043l.043,3.751-.265.134-11.52.088c-.045-.926.617-1.942,1.014-3,.309-.663.619-1.413.927-2.119a4.8,4.8,0,0,1,.574-1.5l.176.088Z" transform="translate(2.543 1.581)" fill="none" stroke="#005e53" stroke-width="0.213"/>
      <path id="Trazado_304" data-name="Trazado 304" d="M51.322,45.464c-.662.354-1.854.53-2.384.795V46.17l-.53-.043c-.043-.4.045-.75.353-.839a5.759,5.759,0,0,0,1.5-.043c.353.22.618,0,1.059.22" transform="translate(1.693 1.582)" fill="gold"/>
      <path id="Trazado_305" data-name="Trazado 305" d="M62.308,45.464a3.1,3.1,0,0,1-1.193,1.192c-.66-.089-.75-.795-1.149-1.149a3.3,3.3,0,0,1,2.342-.043" transform="translate(2.097 1.583)" fill="gold"/>
      <path id="Trazado_306" data-name="Trazado 306" d="M62.308,45.464a3.1,3.1,0,0,1-1.193,1.192c-.66-.089-.75-.795-1.149-1.149A3.3,3.3,0,0,1,62.308,45.464Z" transform="translate(2.097 1.583)" fill="none" stroke="#005e53" stroke-width="0.213"/>
      <path id="Trazado_307" data-name="Trazado 307" d="M47.108,45.595c-.219.529-.441.927-.661,1.367-1.589.75-2.781,2.429-3.929,3.62a11.5,11.5,0,0,0-4.371,1.545A13.476,13.476,0,0,0,35.455,52l-4.15-.045v-.131c1.192-.663,2.207-1.237,3.443-1.811,3.311-1.456,6.092-3.265,9.535-4.679.971.045,1.9-.045,2.692.045Z" transform="translate(1.095 1.585)" fill="gold"/>
      <path id="Trazado_308" data-name="Trazado 308" d="M47.108,45.595c-.219.529-.441.927-.661,1.367-1.589.75-2.781,2.429-3.929,3.62a11.5,11.5,0,0,0-4.371,1.545A13.476,13.476,0,0,0,35.455,52l-4.15-.045v-.131c1.192-.663,2.207-1.237,3.443-1.811,3.311-1.456,6.092-3.265,9.535-4.679.971.045,1.9-.045,2.692.045Z" transform="translate(1.095 1.585)" fill="none" stroke="#005e53" stroke-width="0.213"/>
      <path id="Trazado_309" data-name="Trazado 309" d="M58.5,46.258l-.043.266c-.708-.266-1.458-.531-2.076-.795a.331.331,0,0,1,.22-.443c.75.089,1.678.177,1.9.972" transform="translate(1.971 1.584)" fill="gold"/>
      <path id="Trazado_310" data-name="Trazado 310" d="M95.049,46.336c.617.177,1.412.661,1.5,1.324.264-.132.706.177,1.059.353a2.542,2.542,0,0,0,.619,1.457c-.75-.132-.619.529-.619,1.06a.893.893,0,0,0,.795.4,1.51,1.51,0,0,0,.795,1.589c-.265.22-.75.354-.971,0-.353-.618-.309-1.413-1.1-1.721l-.707.088c.176-.309-.307-.353,0-.619.221.088.619-.177.795-.4a.732.732,0,0,0,.176-.927c-.927-.485-1.368-2.031-2.6-1.987,0,.089,0,.177-.09.177-.66-.177.09-.529.045-.883v-.661c.046.176.4.4.309.75" transform="translate(3.302 1.594)" fill="#005e53"/>
      <path id="Trazado_311" data-name="Trazado 311" d="M101.918,46.763c-.178.265.176.484.22.838.087.309.707.574.265.883-.134.221-.4.045-.485-.045a2.928,2.928,0,0,0-.663-1.5c.223-.264.223-.617.442-.927.354-.087.176.486.221.751" transform="translate(3.541 1.609)" fill="#005e53"/>
      <path id="Trazado_312" data-name="Trazado 312" d="M99.166,46.482c.221.4-.354.265-.354.529-.131.353-.221.618-.7.531-.354-.134-.221-.619-.09-.795.4-.177.795.088,1.149-.265" transform="translate(3.423 1.626)" fill="#005e53"/>
      <path id="Trazado_313" data-name="Trazado 313" d="M49.265,49.208c-.573,0-1.061-.572-1.368-.97,0-1.192,1.677-.706,2.163-1.413.043.087.043.22.176.22.177.088.308-.177.266-.308.219,1.059-.884,1.632-1.237,2.47" transform="translate(1.675 1.635)" fill="gold"/>
      <path id="Trazado_314" data-name="Trazado 314" d="M101,48.449c.838.442.663,1.678,1.809,1.81.266.707,1.017,1.015,1.679,1.325.089.132.221.4,0,.485-.749.441-1.059-.662-1.679-.795-.131-.706-1.588-.088-1.146-1.191-1.017-.442-.573-2.163-2.032-1.9l.219-1.191c.356.442,1.149.706,1.149,1.456" transform="translate(3.485 1.644)" fill="#005e53"/>
      <path id="Trazado_315" data-name="Trazado 315" d="M103.853,48.934l-.088.264c-.619-.22-.75-.927-1.061-1.412l.223-.75c.619.441.572,1.235.926,1.9" transform="translate(3.592 1.645)" fill="#005e53"/>
      <path id="Trazado_316" data-name="Trazado 316" d="M54.691,48.833c.219.707-.663.927-.618,1.5-.177.134-.486.088-.531-.088-.176-.883-.617-1.413-.441-2.427a1.518,1.518,0,0,1,.573-.443c.75,0,.75.971,1.016,1.457" transform="translate(1.856 1.657)" fill="gold"/>
      <path id="Trazado_317" data-name="Trazado 317" d="M58.457,48.167c-.309.132-.574-.265-.751-.4l.177-.265a.94.94,0,0,1,.574.661" transform="translate(2.018 1.661)" fill="gold"/>
      <path id="Trazado_318" data-name="Trazado 318" d="M95.052,47.938c.043.485-.132,1.06.178,1.457.351.088.263-.309.572-.309a.628.628,0,0,1,.311.707c-.135.353-.663,0-.841.088-.573-.176-.307-1.016-.926-1.324.046-.31.353-.487.4-.795.134-.089.177.132.309.176" transform="translate(3.3 1.67)" fill="#005e53"/>
      <path id="Trazado_319" data-name="Trazado 319" d="M46.628,48.628l-1.456.838c-.265-.176-.088-.4.043-.573.4-.177,1.369-1.237,1.413-.265" transform="translate(1.575 1.687)" fill="gold"/>
      <path id="Trazado_320" data-name="Trazado 320" d="M51.866,48.845l.043,1.148c-.219.4-.883.265-1.192.662l-.176-.265a6.778,6.778,0,0,1,.927-2.075c.353-.087.353.442.4.53" transform="translate(1.768 1.689)" fill="gold"/>
      <path id="Trazado_321" data-name="Trazado 321" d="M99.979,49.711a1.512,1.512,0,0,1,0,1.236c-.4.264-.485-.132-.75-.309-.088-.618-.088-1.192-.618-1.545l.219-.265c.618.132.485.795,1.149.884" transform="translate(3.449 1.708)" fill="#005e53"/>
      <path id="Trazado_322" data-name="Trazado 322" d="M105.219,50.977c-.176-.176-.176.22-.354.088-.4-.484,0-.926-.7-1.191-.088-.176-.219-.53,0-.662.663.354.839,1.06,1.059,1.766" transform="translate(3.639 1.721)" fill="#005e53"/>
      <path id="Trazado_323" data-name="Trazado 323" d="M56.462,50.244A2.588,2.588,0,0,1,56.9,52.23,4.277,4.277,0,0,1,56.33,53.6c-.574.088-.266-.619-.531-.883,0,0-.132-.089-.132-.132a3.073,3.073,0,0,1,0-2.34l.4-.265.309.4s.132-.132.088-.132" transform="translate(1.939 1.748)" fill="gold"/>
      <path id="Trazado_324" data-name="Trazado 324" d="M101.161,51.434c0,.089-.045.22.088.22a6.065,6.065,0,0,1,.309.53.185.185,0,0,1-.133.265c-.308,0-.661-.662-1.059-.265-.221.044-.088.574-.266.75a1.577,1.577,0,0,0,.707,1.368c.176.354.088.927.618,1.06.574.177.441-.486.795-.662.573.088,1.148.176,1.458-.4.351-.176.176.266.219.485-.309,0-.266.309-.53.442-.662.4-1.855.486-2.207,1.325-.487.132-.619.927-1.282.529-.176-.087-.307.134-.441.177.134.265.134.661.486.795.088.264.442.353.485.618-.089.22-.221.308-.441.22-.354-.485-.531-1.148-1.061-1.544.134-.53.928-1.06.663-1.679v-.352c.663-.089.176,1.72,1.192.971.219-.045.131-.354.219-.53.221-.707-.971-1.1-1.1-1.767-.307.221-.264-.264-.527-.176-.266-.22,0-.4.086-.573.353.043.441-.309.531-.485,0-.707.131-1.855,1.192-1.325" transform="translate(3.459 1.794)" fill="#005e53"/>
      <path id="Trazado_325" data-name="Trazado 325" d="M52.168,51.386a3.332,3.332,0,0,1-.75,2.208,3.165,3.165,0,0,0-.884,2.693c-.308.221.089.265.046.485.043-.044.131-.088.088-.132.265-.088.088.221.221.309.926-.309.838-1.456,1.5-2.031.573-.22.354.662.573.926l.442,1.325c-.4,0-.927.574-1.191.265a18.6,18.6,0,0,0-3.841,0c-.4-.265,0-.485-.088-.795.352-1.1,1.413-1.854,1.721-2.869.662-.884,1.148-1.9,2.163-2.385" transform="translate(1.685 1.797)" fill="gold"/>
      <path id="Trazado_326" data-name="Trazado 326" d="M96.791,51.994c-.176.045-.131.442,0,.486.134.22.443.088.619.22,0,.485.352.751.53,1.1-.53.354-.927-.53-1.368-.706-.047-.441-.4-.883-.088-1.413.264-.045.088.265.307.308" transform="translate(3.37 1.807)" fill="#005e53"/>
      <path id="Trazado_327" data-name="Trazado 327" d="M106.65,53.009c.175.442.749.751.528,1.237-.926-.178-.926-1.326-1.854-1.326-.134.221.044.619-.134.795a1.383,1.383,0,0,1,.31,1.06c-.354-.088-.354.045-.662-.088-.134-.707.308-1.236,0-1.9.132-.442.573-.75.884-1.1.307.4.087,1.414.927,1.325" transform="translate(3.666 1.808)" fill="#005e53"/>
      <path id="Trazado_328" data-name="Trazado 328" d="M49.344,52.522a2.34,2.34,0,0,1-1.192.574,3.947,3.947,0,0,1,.575-1.149l.263-.22c.089.309.53.353.354.795" transform="translate(1.684 1.809)" fill="gold"/>
      <path id="Trazado_329" data-name="Trazado 329" d="M103.254,52.956l.53-.132c0,.353.484.75,0,.972l-.354-.309.043.045c.09-.045.045-.132.045-.221-.264.353-.839-.265-1.147-.045-.09-.573-.4-.794.045-1.324.4.265.175.926.838,1.015" transform="translate(3.574 1.817)" fill="#005e53"/>
      <path id="Trazado_330" data-name="Trazado 330" d="M94.859,52.154c.132.132.266.132.442.221.926,2.913,2.561,6.136,3.487,9.094-.043.264-.4.176-.529.307-.09-.131-12.716-.088-13.289-.131-.264-1.5,0-3.311-.219-4.768.176-1.28-.134-2.781,0-4.37l.307-.309c3.179-.089,6.8-.044,9.8-.044" transform="translate(2.963 1.824)" fill="gold"/>
      <path id="Trazado_331" data-name="Trazado 331" d="M94.859,52.154c.132.132.266.132.442.221.926,2.913,2.561,6.136,3.487,9.094-.043.264-.4.176-.529.307-.09-.131-12.716-.088-13.289-.131-.264-1.5,0-3.311-.219-4.768.176-1.28-.134-2.781,0-4.37l.307-.309C88.237,52.11,91.856,52.154,94.859,52.154Z" transform="translate(2.963 1.824)" fill="none" stroke="#005e53" stroke-width="0.213"/>
      <path id="Trazado_332" data-name="Trazado 332" d="M71.724,52.286c.354.309-3.135,8.3-3.577,9.4l-.352.22-5.7-.088a6.314,6.314,0,0,1,1.943-1.987,2.751,2.751,0,0,0,1.766-2.515,1.763,1.763,0,0,0,.353-1.326h.045c.132-.4.309-3.575.309-3.84.353.265,3.929.045,5.209.132" transform="translate(2.172 1.824)" fill="gold"/>
      <path id="Trazado_333" data-name="Trazado 333" d="M71.724,52.286c.354.309-3.135,8.3-3.577,9.4l-.352.22-5.7-.088a6.314,6.314,0,0,1,1.943-1.987,2.751,2.751,0,0,0,1.766-2.515,1.763,1.763,0,0,0,.353-1.326h.045c.132-.4.309-3.575.309-3.84C66.868,52.419,70.444,52.2,71.724,52.286Z" transform="translate(2.172 1.824)" fill="none" stroke="#005e53" stroke-width="0.213"/>
      <path id="Trazado_334" data-name="Trazado 334" d="M84.612,52.374l.131.926h.045c-.131,2.87.221,5.166.09,8.211l-.309.264-15.1.044c-.223,0-.972.132-1.015-.308.971-1.767,2.605-5.916,2.605-5.916.441-1.1.883-2.074,1.324-3.134l.442-.22c3.487-.089,7.151-.045,10.594-.045a2.7,2.7,0,0,1,1.191.177" transform="translate(2.394 1.825)" fill="gold"/>
      <path id="Trazado_335" data-name="Trazado 335" d="M84.612,52.374l.131.926h.045c-.131,2.87.221,5.166.09,8.211l-.309.264-15.1.044c-.223,0-.972.132-1.015-.308.971-1.767,2.605-5.916,2.605-5.916.441-1.1.883-2.074,1.324-3.134l.442-.22c3.487-.089,7.151-.045,10.594-.045A2.7,2.7,0,0,1,84.612,52.374Z" transform="translate(2.394 1.825)" fill="none" stroke="#005e53" stroke-width="0.213"/>
      <path id="Trazado_336" data-name="Trazado 336" d="M38,52.453c.354,0,.221.485.132.618-2.252,4.061-8.3,4.988-12.714,6.093-1.633.4-3.531.529-4.988.749a35.95,35.95,0,0,1-3.753.132,2.689,2.689,0,0,1-1.325-.088c.4-.618,1.59-.883,2.208-1.325a5.744,5.744,0,0,1,.883-.4.636.636,0,0,1,.221-.13c3.619-1.678,7.46-3.754,11.256-5.563,2.516-.132,4.989-.044,8.078-.088" transform="translate(0.537 1.835)" fill="gold"/>
      <path id="Trazado_337" data-name="Trazado 337" d="M38,52.453c.354,0,.221.485.132.618-2.252,4.061-8.3,4.988-12.714,6.093-1.633.4-3.531.529-4.988.749a35.95,35.95,0,0,1-3.753.132,2.689,2.689,0,0,1-1.325-.088c.4-.618,1.59-.883,2.208-1.325a5.744,5.744,0,0,1,.883-.4.636.636,0,0,1,.221-.13c3.619-1.678,7.46-3.754,11.256-5.563C32.436,52.409,34.909,52.5,38,52.453Z" transform="translate(0.537 1.835)" fill="none" stroke="#005e53" stroke-width="0.213"/>
      <path id="Trazado_338" data-name="Trazado 338" d="M54.888,53.767c.088.529.618.573,1.06.751a2.247,2.247,0,0,0,0,1.986c-.4.441-.972.308-1.5.353.575-1.855-1.014-2.649-.66-3.974.176-.307.441-.043.573.045a1.828,1.828,0,0,0,.529.839" transform="translate(1.879 1.844)" fill="gold"/>
      <path id="Trazado_339" data-name="Trazado 339" d="M102.32,53.4a.812.812,0,0,1-.661.529.78.78,0,0,1-.573-.441c.264-.221.661,0,1.059-.221.043.045.088.177.176.134" transform="translate(3.535 1.863)" fill="#005e53"/>
      <path id="Trazado_340" data-name="Trazado 340" d="M47.445,56.187c-.131.441,0,1.413-.529,1.545-.485,0-.883.352-1.325.22-.353-.573-.573-1.5-1.191-1.9.353-.441.618-1.148,1.324-.794.132.353.707.22.971.088l.485-.486h.046l.131-.176c-.043-.045.266-.045.4-.132l.089-.309c.882.574-.442,1.061-.4,1.943" transform="translate(1.553 1.897)" fill="gold"/>
      <path id="Trazado_341" data-name="Trazado 341" d="M98.647,55.192c-.132.265-.973.353-.575.926l-.043.266c-.485-.045-.264-.487-.442-.663.045-.441.309-.485.531-.795.308-.043.44.045.53.266" transform="translate(3.413 1.921)" fill="#005e53"/>
      <path id="Trazado_342" data-name="Trazado 342" d="M108.486,56.781c-.219.883.971,1.5.221,1.943-.575.354-.928-.663-1.634-.308-.131.043-.177.131-.265.22-.354.043-.266-.487-.088-.53.264-.442,1.28.088,1.412-.618.135-.177,0-.265.047-.442-.266-.353-.929-.132-.929-.485l.4-.707c-.087-.353-.7-.573-.4-.927.707.266.663,1.326,1.237,1.855" transform="translate(3.727 1.921)" fill="#005e53"/>
      <path id="Trazado_343" data-name="Trazado 343" d="M106.533,55.492c.176.353-.31.308-.31.4-.266-.088-.75-.131-.529-.661.308-.177.617.089.839.265" transform="translate(3.695 1.929)" fill="#005e53"/>
      <path id="Trazado_344" data-name="Trazado 344" d="M105.021,56.3c-.309.177-.839.045-.751.53a.554.554,0,0,0,.442.485l-.088.134c.309.043.309-.089.617.176.266.573-.176.883.354,1.279.353.044.485.31.795.31-.131.44.264.44.441.748.354,0,.708-.264.927,0-.045.31-.219.62-.618.575-.75,0-.619,1.059-1.192,1.279l-.088-.131c-.531.219-1.014-.265-1.545-.575-.045-.219.221-.484.573-.484.441.131.441.662.972.662.4-.132.486-.531.53-.927a.977.977,0,0,0-.751-.838c-.441-.132-.485.44-.75.529-.22-.706.531-1.986-.618-2.472.045-.618-1.5-.529-.617-1.28.4-.353,1.28-.706,1.368,0" transform="translate(3.616 1.955)" fill="#005e53"/>
      <path id="Trazado_345" data-name="Trazado 345" d="M106.3,57.334c-.219-.132-.4,0-.309-.442l.309-.132a.465.465,0,0,1,0,.574" transform="translate(3.706 1.985)" fill="#005e53"/>
      <path id="Trazado_346" data-name="Trazado 346" d="M102.756,57.023c-.088.75-.971.529-1.147,1.28l-.353.045c.131-.62.088-1.325.883-1.5.176.045.485-.131.617.178" transform="translate(3.541 1.988)" fill="#005e53"/>
      <path id="Trazado_347" data-name="Trazado 347" d="M108.037,58.3v-.221l.045.177Z" transform="translate(3.779 2.031)" fill="gold"/>
      <path id="Trazado_348" data-name="Trazado 348" d="M103.777,59.666c-.309-.044-.619-.7-1.1-.308l-.264.131c-.221-.264.219-.528.307-.883l1.061-.352c-.178.352.309.926,0,1.412" transform="translate(3.58 2.037)" fill="#005e53"/>
      <path id="Trazado_349" data-name="Trazado 349" d="M110.414,59.345a.455.455,0,0,1-.309.529,1.128,1.128,0,0,1-.53-1.236.271.271,0,0,1,.308.043c0,.309.309.486.531.663" transform="translate(3.831 2.05)" fill="#005e53"/>
      <path id="Trazado_350" data-name="Trazado 350" d="M101.729,59.28c.131.4-.485.353-.707.4l-.573.4a.76.76,0,0,1,0-.751c.441.132.838-.264,1.28-.043" transform="translate(3.51 2.071)" fill="#005e53"/>
      <path id="Trazado_351" data-name="Trazado 351" d="M109.3,60.3c-.043.441-.4.661-.529.972.043-.088-.8-.928,0-1.06Z" transform="translate(3.792 2.106)" fill="#005e53"/>
      <path id="Trazado_352" data-name="Trazado 352" d="M101.279,61.183c-.219-.045-.795-.178-.707-.619l.088-.22c.178.22.751.309.619.839" transform="translate(3.517 2.11)" fill="#005e53"/>
      <path id="Trazado_353" data-name="Trazado 353" d="M102.7,60.651c.09.706.885.971.885,1.766a4.829,4.829,0,0,0,.661.353l-.132.354c-.353-.089-.529.353-.883.484-.619.442.176,1.722-.707,1.9.088.662-.573.707-.4,1.413.309.573,1.014,1.148.663,1.853-.09-.043-.09.046-.135.09-.795-.133-.175-1.369-.97-1.59,0-.486-.53-1.1.265-1.237.219-.308-.221-.354-.043-.706a.958.958,0,0,0,.748-1.191c-.263-.354-.748-.31-.883-.839l.354-.22c.088.177.485.177.839.177.309-.177.309-.531.309-.927l-.309-.309.043-.043c-.442-.223-.573-.795-1.149-1.017-.175-.219,0-.484.266-.572a.776.776,0,0,1,.573.265" transform="translate(3.55 2.112)" fill="#005e53"/>
      <path id="Trazado_354" data-name="Trazado 354" d="M110.934,61.342c-.176.043-.131.4,0,.441.4.485,1.149.795,1.149,1.5.131.4.573.132.883.22,0,.354-.045.707-.354.751-.221-.089-.529.352-.838.131-.176-.75,0-1.015-.618-1.545-.4-.441-.487-1.236-1.324-1.324-.09-.046-.047-.177-.047-.308a1.857,1.857,0,0,1,.839-.4c.266-.045.354.22.309.53" transform="translate(3.839 2.127)" fill="#005e53"/>
      <path id="Trazado_355" data-name="Trazado 355" d="M108.462,62.031a.842.842,0,0,1-.132.972c-.221-.132-.134.265-.221,0,.135-.132-.043-.574-.263-.706-.309-.177-.663-.177-.575-.532,0-.263.134-.352.353-.44.178.265.485.662.839.706" transform="translate(3.751 2.145)" fill="#005e53"/>
      <path id="Trazado_356" data-name="Trazado 356" d="M109.625,62.413l-.046.265c-.043-.177-.4-.618-.134-.928.223,0,.047.486.179.663" transform="translate(3.824 2.16)" fill="#005e53"/>
      <path id="Trazado_357" data-name="Trazado 357" d="M101.788,62.189V62.5a.465.465,0,0,1-.617-.4l.088-.266c.353-.045.307.31.529.354" transform="translate(3.538 2.163)" fill="#005e53"/>
      <path id="Trazado_358" data-name="Trazado 358" d="M93.6,62.139c.309,0,.354-.043.531.265,0,.53.044.926-.353,1.191-.266-.131-.4.221-.309.354-.045-.354-.442-.53-.618-.795,0-.176.088-.53-.088-.441a.824.824,0,0,1-.795.176c-.176-.134-.4-.22-.353-.485v-.221c.043.045.088-.043.131-.087.134.22.266-.134.485,0,.266,0,.442.087.707-.089.132.132.485,0,.661.132" transform="translate(3.204 2.169)" fill="gold"/>
      <path id="Trazado_359" data-name="Trazado 359" d="M68.738,62.177a2.41,2.41,0,0,1,.178,1.06l-.31.353c-.353-.131-.75-.353-.662-.795a.859.859,0,0,1,.795-.618" transform="translate(2.376 2.174)" fill="gold"/>
      <path id="Trazado_360" data-name="Trazado 360" d="M105.358,62.531c-.044-.043-.267-.043-.179-.176-.088-.22.088-.132.179-.22.176,0,.176.4,0,.4" transform="translate(3.678 2.173)" fill="#005e53"/>
      <path id="Trazado_361" data-name="Trazado 361" d="M74.668,62.221a.4.4,0,0,1-.441.442c-.22-.045-.441-.088-.353-.4a1.226,1.226,0,0,1,.794-.045" transform="translate(2.583 2.175)" fill="gold"/>
      <path id="Trazado_362" data-name="Trazado 362" d="M76.827,63.679c.044.354-.486.53-.75.308-.221-.131-.485-.485-.707-.265a1.2,1.2,0,0,0-.131-.66c.176-.266.131-.884.795-.884a1.834,1.834,0,0,1,.794,1.5" transform="translate(2.631 2.175)" fill="gold"/>
      <path id="Trazado_363" data-name="Trazado 363" d="M106.91,63.011c-.131.573.309.884,0,1.325-.219.308-.529.131-.7-.044a1.939,1.939,0,0,0,.309-1.28c-.221-.088-.487-.4-.221-.618a.544.544,0,0,1,.529.043c0,.22-.043.486.088.574" transform="translate(3.714 2.18)" fill="#005e53"/>
      <path id="Trazado_364" data-name="Trazado 364" d="M110.323,64.049c-.176,0-.086.132-.219.177-.044.088-.264-.266-.31,0-.175-.134-.353-.353-.131-.486l.442-.794c.353.132.134.749.219,1.1" transform="translate(3.832 2.201)" fill="#005e53"/>
      <path id="Trazado_365" data-name="Trazado 365" d="M80.613,63.165l.088-.177.045.045Z" transform="translate(2.819 2.203)" fill="gold"/>
      <path id="Trazado_366" data-name="Trazado 366" d="M90.219,63.694c-.354.132-.178-.308-.309-.4l.221-.308c.176.045.307.485.088.706" transform="translate(3.145 2.203)" fill="#005e53"/>
      <path id="Trazado_367" data-name="Trazado 367" d="M105.755,64.438c-.178,0-.354.221-.443,0-.573-.088-.927.309-1.367.619-.353-.619,1.059-.926.4-1.633-.044-.221.089-.221.221-.265.441.441,1.014.707,1.192,1.279" transform="translate(3.633 2.209)" fill="#005e53"/>
      <path id="Trazado_368" data-name="Trazado 368" d="M89.739,64.481v.574a.571.571,0,0,1-.529-.221c.087-.661-.485-.97-.749-1.368l.131-.265c.4.353,1.413.308,1.147,1.28" transform="translate(3.094 2.21)" fill="#005e53"/>
      <path id="Trazado_369" data-name="Trazado 369" d="M109.207,63.8c-.309.442-.4,1.368-1.28,1.191-.088.221-.354.089-.53-.042-.089-.575.573-.178.794-.443.4-.176.441-.927,1.016-.706" transform="translate(3.756 2.23)" fill="#005e53"/>
      <path id="Trazado_370" data-name="Trazado 370" d="M92.96,64.855c.132.4.088.883.573,1.059.353.045.487-.043.575.266l-.223.529a3.691,3.691,0,0,0-2.119-1.456c-.132-.486-1.059-.751-.617-1.369.75.089.7,1.192,1.809.972" transform="translate(3.184 2.234)" fill="#005e53"/>
      <path id="Trazado_371" data-name="Trazado 371" d="M73.778,64.718a1.088,1.088,0,0,0-.442,1.149c.045.352.485.352.309.793-.221.4-.662-.088-.839.134v-.662l.045.045c.043-.663.177-1.192.265-1.855.22-.618.927-.219.662.4" transform="translate(2.546 2.239)" fill="#005e53"/>
      <path id="Trazado_372" data-name="Trazado 372" d="M81.968,64.709c-.309.354-.751-.045-.971-.045l.132-.4c.263.176.926-.221.838.441" transform="translate(2.833 2.248)" fill="#005e53"/>
      <path id="Trazado_373" data-name="Trazado 373" d="M114.217,65.636c0,.265-.088.442-.266.485-.441,0-.221-.706-.573-.882.264-.531-.573-.663-.134-.972Z" transform="translate(3.956 2.248)" fill="#005e53"/>
      <path id="Trazado_374" data-name="Trazado 374" d="M95.484,65.631c-.221.178-.354.309-.663,0-.4-.132-.131-.662-.219-1.06.088-.088.354-.22.529-.088.223.308.044.971.354,1.148" transform="translate(3.308 2.253)" fill="#005e53"/>
      <path id="Trazado_375" data-name="Trazado 375" d="M111.233,65.268c-.133.442-.883.176-1.149.353,0-.265.311-.618.53-.927a.76.76,0,0,1,.619.574" transform="translate(3.85 2.263)" fill="#005e53"/>
      <path id="Trazado_376" data-name="Trazado 376" d="M105.8,66.361l.529.044v.219h.088c-.043.354-.263.707-.617.707-.707-.22-.663-.795-.619-1.368.134-.353.485-.662.531-.971.4.529-.4.971.088,1.368" transform="translate(3.678 2.273)" fill="#005e53"/>
      <path id="Trazado_377" data-name="Trazado 377" d="M75,65.7c-.131-.044-.131.132-.131.176l-.088-.087c-.089.176-.4.22-.443.043-.089-.311.134-.574.22-.795.442-.089.442.308.442.662" transform="translate(2.599 2.274)" fill="#005e53"/>
      <path id="Trazado_378" data-name="Trazado 378" d="M113.409,66.485c.573.177.883,1.237,1.678.618v.884a2.068,2.068,0,0,0-1.148.353c.043-.177-.266-.22-.22-.22a.807.807,0,0,0-.177-.839c-.486-.353-1.28-.308-1.1-1.148-.531-.265.045-.619.219-.883.4.22,0,1.148.751,1.236" transform="translate(3.925 2.282)" fill="#005e53"/>
      <path id="Trazado_379" data-name="Trazado 379" d="M109.286,65.777l-.354-.178.135-.308.307.176Z" transform="translate(3.81 2.284)" fill="#005e53"/>
      <path id="Trazado_380" data-name="Trazado 380" d="M87.04,66.564l.131-.045c.047.354.4.4.442.795-.661.265-.927-.662-1.368-1.016-.309-.263.043-.484.088-.749.265-.089.531-.046.619.176-.131.4.307.573.088.839" transform="translate(3.012 2.291)" fill="#005e53"/>
      <path id="Trazado_381" data-name="Trazado 381" d="M97.856,65.814c.132.7-1.1.484-.663,1.368.309.795,1.634.617,1.854,1.059-.131.265.09.4.178.662.442.4.971.75,1.059,1.413-.176.309-.485.132-.617-.088.087-.706-1.193-.22-.751-1.1.266-.221-.088-.4-.132-.619a.805.805,0,0,0-.882-.045c-.354.485.441.928.175,1.634l-.131.265a2.522,2.522,0,0,0-.573-1.192c-.178-.177.088-.485.176-.707,0-.44-.221-.573-.529-.794-.354.089-.4.441-.751.4-.132-.574.176-.707.485-.926a3.569,3.569,0,0,1,.662-1.635.562.562,0,0,1,.442.311" transform="translate(3.366 2.291)" fill="#005e53"/>
      <path id="Trazado_382" data-name="Trazado 382" d="M104.274,66.121c-.176.176-.661.088-.529.484-.045.354.309.266.485.442.088.708.838.839,1.014,1.544.663.354.531,1.15,1.149,1.591l-.088.308a8.479,8.479,0,0,1-1.28-1.236c.087-.883-1.017-.926-1.059-1.721-.309-.221-.751-.4-.663-.884.045-.573.7-.795.971-1.1.178.088.088.442,0,.574" transform="translate(3.613 2.292)" fill="#005e53"/>
      <path id="Trazado_383" data-name="Trazado 383" d="M92.1,66.779c.176.088.442-.221.529,0,.044.441-.353.66-.793.75-.265-.574-.928-.928-1.192-1.545-.309-.134.043-.22.088-.309.53.176.661,1.06,1.368,1.1" transform="translate(3.166 2.297)" fill="#005e53"/>
      <path id="Trazado_384" data-name="Trazado 384" d="M71.719,66.864c-.043.132-.264.308-.441.176-.045-.442-.4-.839-.088-1.279.309.131.176.837.529,1.1" transform="translate(2.485 2.3)" fill="#005e53"/>
      <path id="Trazado_385" data-name="Trazado 385" d="M108.393,66.329c.264.662,1.059,1.059.617,1.9-.043.177-.307.486-.175.8-.309.308-.884-.309-1.28.132-.442-.045-.486-.53-.839-.707-.044-.4.264-.4.617-.484.487.131.309.883.973.749.352-.221.4-.706.442-1.059-.221-.883-2.163-.485-1.368-1.678.176-.134.263.045.441.087,0,.31.4.177.573.266" transform="translate(3.732 2.306)" fill="#005e53"/>
      <path id="Trazado_386" data-name="Trazado 386" d="M89.595,66.855c-.309.219-.617.441-.485.926-.219-.088-.178-.22-.309-.442-.045-.308.575-.44.178-.794l.219-.529c.265.175.354.66.4.838" transform="translate(3.106 2.309)" fill="#005e53"/>
      <path id="Trazado_387" data-name="Trazado 387" d="M96.074,66.5c-.221.221-.443.045-.619-.045-.088-.264.088-.352.265-.4.308.046.264.4.354.442" transform="translate(3.338 2.31)" fill="#005e53"/>
      <path id="Trazado_388" data-name="Trazado 388" d="M110.494,66.712c-.4.09-.264.662-.707.53-.176-.529.178-.618.353-.926.176-.045.486.043.354.4" transform="translate(3.838 2.319)" fill="#005e53"/>
      <path id="Trazado_389" data-name="Trazado 389" d="M68.936,67.281l-.221.043c-.176-.175-.044-.528-.088-.794.529-.265.529.354.309.75" transform="translate(2.4 2.325)" fill="#005e53"/>
      <path id="Trazado_390" data-name="Trazado 390" d="M76.744,67.547c.132.485.574.882.53,1.456l-.308.089c0-.178-.177-.265-.089-.442h.046c-.4-.574-.839-1.678-1.855-1.633a.483.483,0,0,1,.22-.574c.839.089.971.662,1.456,1.1" transform="translate(2.625 2.324)" fill="#005e53"/>
      <path id="Trazado_391" data-name="Trazado 391" d="M111.428,67.226a.414.414,0,0,1-.617-.353c.088-.177.792-.088.617.353" transform="translate(3.876 2.336)" fill="#005e53"/>
      <path id="Trazado_392" data-name="Trazado 392" d="M95.356,68.326a.187.187,0,0,1-.132.266c-.265-.135-.75-.31-.707-.751h.045c-.045-.177-.131-.75.043-.971.751,0-.131,1.368.751,1.456" transform="translate(3.305 2.339)" fill="#005e53"/>
      <path id="Trazado_393" data-name="Trazado 393" d="M113.668,67.086l.088-.089v.134Z" transform="translate(3.975 2.343)" fill="gold"/>
      <path id="Trazado_394" data-name="Trazado 394" d="M90.888,68.186c-.132,1.192,1.014,1.368,1.061,2.385-.442.088-.532-.134-.883-.309-.532-.662-.135-1.9-1.149-2.251,0-.308-.485-.75,0-.926.617.043.4.926.971,1.1" transform="translate(3.137 2.346)" fill="#005e53"/>
      <path id="Trazado_395" data-name="Trazado 395" d="M68.222,67.994c-.088.22-.177.353-.4.308-.131-.265-.309-.352-.219-.706.351-.131.66,0,.617.4" transform="translate(2.364 2.362)" fill="#005e53"/>
      <path id="Trazado_396" data-name="Trazado 396" d="M70.938,67.641c-.308.266.043.485.089.794.307.355.529.4.441.972-.4,0-.927.089-1.06-.088.221-.22.441-.663.177-.972-.309-.4-1.016.176-1.148-.44.309,0,1.014-.62,1.5-.266" transform="translate(2.429 2.362)" fill="#005e53"/>
      <path id="Trazado_397" data-name="Trazado 397" d="M72.353,68.171c-.043.089-.088.4-.309.442s-.131-.353-.131-.573c.176-.088.043-.353.087-.53.354.043.31.4.354.661" transform="translate(2.514 2.361)" fill="#005e53"/>
      <path id="Trazado_398" data-name="Trazado 398" d="M74.686,68.258c-.308.264-.176.883-.529,1.148a.73.73,0,0,1-.839-.045c.134-.352.883-.308.971-.794-.043-.486-.617-.353-.529-.8.353-.043.795.09.926-.22a.535.535,0,0,1,0,.707" transform="translate(2.564 2.363)" fill="#005e53"/>
      <path id="Trazado_399" data-name="Trazado 399" d="M88.176,68.519c-.088.132-.354.046-.4-.176,0-.22-.134-.574.088-.706.266.088.354.485.309.882" transform="translate(3.069 2.366)" fill="#005e53"/>
      <path id="Trazado_400" data-name="Trazado 400" d="M84.006,68.165c-.221.485.132.927.088,1.457-.572-.132-.572-1.015-.838-1.589.088-.663.662-.176.75.131" transform="translate(2.912 2.368)" fill="#005e53"/>
      <path id="Trazado_401" data-name="Trazado 401" d="M93.978,67.9c-.221.529-1.061.529-.973,1.236-.353.352-.529-.221-.75-.353-.088-.839,1.192-.31,1.369-1.061.22-.088.264.045.354.178" transform="translate(3.226 2.368)" fill="#005e53"/>
      <path id="Trazado_402" data-name="Trazado 402" d="M78.41,68.119c-.089.089-.045.265-.045.4-.309.09-.309-.131-.442-.264l.132-.486c.309-.176.265.266.354.354" transform="translate(2.725 2.369)" fill="#005e53"/>
      <path id="Trazado_403" data-name="Trazado 403" d="M111.216,68.427h-.046c-.264.178.265.178-.042.22-.134-.132-.75-.177-.531-.661.4-.619.573.176.619.441" transform="translate(3.866 2.37)" fill="#005e53"/>
      <path id="Trazado_404" data-name="Trazado 404" d="M112.531,68.822c-.131.045-.131.132-.309.089a1.219,1.219,0,0,1,0-1.1c.529,0,.353.66.309,1.014" transform="translate(3.92 2.372)" fill="#005e53"/>
      <path id="Trazado_405" data-name="Trazado 405" d="M86.772,68.334c-.134.088-.266.043-.4.043-.134.045-.178-.22-.134-.4.265-.221.574.088.531.353" transform="translate(3.016 2.375)" fill="#005e53"/>
      <path id="Trazado_406" data-name="Trazado 406" d="M75.9,68.328l-.046-.043c-.132.265-.22.661-.572.485-.179-.573.263-.309.308-.707l.309.045Z" transform="translate(2.631 2.38)" fill="#005e53"/>
      <path id="Trazado_407" data-name="Trazado 407" d="M73.115,68.636c-.132.134-.178,0-.309-.043.043-.177-.088-.442.131-.485.354-.088.135.352.178.529" transform="translate(2.546 2.382)" fill="#005e53"/>
      <path id="Trazado_408" data-name="Trazado 408" d="M90.037,70.445v.177c-.441.045-.926.045-1.147-.221.22-.706-.487-.97.22-1.367.131-.31.265-.751.529-.884.441.795-1.014,2.031.4,2.3" transform="translate(3.105 2.383)" fill="#005e53"/>
      <path id="Trazado_409" data-name="Trazado 409" d="M115.815,68.763l-.309.131c-.132-.353-.178-.353,0-.618.266,0,.354.22.309.486" transform="translate(4.036 2.388)" fill="#005e53"/>
      <path id="Trazado_410" data-name="Trazado 410" d="M67.123,69.636c.53.088.485-.707.927-.53a9.393,9.393,0,0,1,.442,1.767,3.366,3.366,0,0,0-1.325-.663l-.177-.308c-.088.352-.309.043-.53,0a1.3,1.3,0,0,1-.176-1.325c.264.22.22.883.838,1.06" transform="translate(2.314 2.398)" fill="#005e53"/>
      <path id="Trazado_411" data-name="Trazado 411" d="M79.4,69.367a10.67,10.67,0,0,1-.53.971,2.737,2.737,0,0,1-.309-1.677c.354.176.795.309.839.706" transform="translate(2.747 2.401)" fill="#005e53"/>
      <path id="Trazado_412" data-name="Trazado 412" d="M94.662,69.408c-.088,0-.219.043-.309-.045a1.362,1.362,0,0,1-.4.883c-.4.131-.795-.221-1.017.131-.043-.043-.175-.661.088-.7.487.177.929-.221,1.325-.309l.221-.618c.176.087.045.441.088.662" transform="translate(3.248 2.404)" fill="#005e53"/>
      <path id="Trazado_413" data-name="Trazado 413" d="M69.906,69.363c-.265.707.442,1.1.177,1.5-.619-.309-.574-1.236-1.06-1.679-.043.177-.131.045-.265,0l-.132-.131a.284.284,0,0,1,.529-.134c-.087.486.532.221.751.442" transform="translate(2.4 2.406)" fill="#005e53"/>
      <path id="Trazado_414" data-name="Trazado 414" d="M110.9,69.407l.131.043-.177.75c-.087-.131-.309.045-.221,0-.309,0-.529-.4-.838-.352-.485-.309-.043-.708,0-1.061.443-.043.309,1.016,1.105.619" transform="translate(3.832 2.406)" fill="#005e53"/>
      <path id="Trazado_415" data-name="Trazado 415" d="M85.624,69.317c.264-.043.442-.132.7,0,.266.354.135.53.09,1.014-.485.311-.485-.572-1.061-.7-.221-.089-.485-.22-.353-.53l.088-.266c.134.089.265.354.531.486" transform="translate(2.972 2.407)" fill="#005e53"/>
      <path id="Trazado_416" data-name="Trazado 416" d="M103.754,69.182c.485,0,.354.619.529.884v.307c-.573-.088-.573-.837-1.148-1.014.134-.265-.352-.309,0-.485.353,0,.441.4.619.308" transform="translate(3.603 2.409)" fill="#005e53"/>
      <path id="Trazado_417" data-name="Trazado 417" d="M113.563,69.358a6,6,0,0,1,0,.883V70.2l-.531.132c-.354-.353.264-.661-.088-.971-.088-.22.131-.308.219-.442.222-.043.266.354.4.442" transform="translate(3.949 2.41)" fill="#005e53"/>
      <path id="Trazado_418" data-name="Trazado 418" d="M87.869,69.441c-.131.132-.221-.176-.221-.308l.134-.088c.131.043.088.265.088.4" transform="translate(3.065 2.415)" fill="#005e53"/>
      <path id="Trazado_419" data-name="Trazado 419" d="M76.609,69.437l-.22.089.132-.354c.131-.043.043.177.088.265" transform="translate(2.672 2.419)" fill="#005e53"/>
      <path id="Trazado_420" data-name="Trazado 420" d="M114.924,69.7c-.221.132-.221.265-.487.132-.264-.309.266-.486.266-.662a.552.552,0,0,1,.221.53" transform="translate(4 2.419)" fill="#005e53"/>
      <path id="Trazado_421" data-name="Trazado 421" d="M82.987,70.627c-.529.22-.572-.221-.838-.53,0-.265-.131-.663.088-.839.178.442.574.839.75,1.369" transform="translate(2.872 2.422)" fill="#005e53"/>
      <path id="Trazado_422" data-name="Trazado 422" d="M76.141,70.182a.469.469,0,0,1-.309.574,3.181,3.181,0,0,0-.662-.354c-.265-.308-.75-.441-.353-.883.176-.353.265-.045.485.045.045.353.485.574.839.618" transform="translate(2.611 2.426)" fill="#005e53"/>
      <path id="Trazado_423" data-name="Trazado 423" d="M96.527,69.432c.53.089.132.795.7.883V70.4c-.795.221-1.192-.4-1.9-.442-.044-.131-.4-.4-.09-.618.487-.132.841.574,1.282.088" transform="translate(3.327 2.425)" fill="#005e53"/>
      <path id="Trazado_424" data-name="Trazado 424" d="M116.635,69.826v.22c-.266-.089-.619-.089-.707-.353,0-.4.795-.309.707.132" transform="translate(4.054 2.429)" fill="#005e53"/>
      <path id="Trazado_425" data-name="Trazado 425" d="M73.519,70.741c-.575.177-.663-1.014-1.325-.354-.265.089-.134.486-.486.443l-.308-.089c.354-.089.53-1.06,1.059-.883a.527.527,0,0,1,.707.088.96.96,0,0,1,.354.795" transform="translate(2.497 2.44)" fill="#005e53"/>
      <path id="Trazado_426" data-name="Trazado 426" d="M77.641,70.656c-.089.221-.265.089-.441.089-.045-.443.484-.486.441-.927l.089-.132c.308.354-.046.661-.089.971" transform="translate(2.7 2.437)" fill="#005e53"/>
      <path id="Trazado_427" data-name="Trazado 427" d="M84.769,69.859a2.1,2.1,0,0,1-.4.751c-.354.087-.134-.4-.178-.574.045-.089.221-.046.178-.177v-.088c.264.045.354-.132.442.088Z" transform="translate(2.944 2.439)" fill="#005e53"/>
      <path id="Trazado_428" data-name="Trazado 428" d="M108.354,70.122c-.131,0-.088.132-.219.176-.047.132-.223-.308-.309,0,.043-.176-.09-.441.087-.484.264-.088.311.176.442.308" transform="translate(3.771 2.441)" fill="#005e53"/>
      <path id="Trazado_429" data-name="Trazado 429" d="M80.427,70.382c-.354,0-.486.53-.839.265a.9.9,0,0,1,.4-.707c.178.089.573.089.442.442" transform="translate(2.784 2.446)" fill="#005e53"/>
      <path id="Trazado_430" data-name="Trazado 430" d="M87.436,70.117l.219-.177v.353Z" transform="translate(3.058 2.446)" fill="#005e53"/>
      <path id="Trazado_431" data-name="Trazado 431" d="M115.515,70.029V70.2c-.132-.308-.221.177-.309,0,0-.22-.176-.044,0-.265.088,0,.177.134.309.089" transform="translate(4.027 2.446)" fill="#005e53"/>
      <path id="Trazado_432" data-name="Trazado 432" d="M81.217,70.455v.132c-.131.132-.219-.089-.219-.177.088.132.131,0,.219.045" transform="translate(2.833 2.463)" fill="#005e53"/>
      <path id="Trazado_433" data-name="Trazado 433" d="M39.353,90.461a27.709,27.709,0,0,1-.118,4.561c-.187,1.107-.61,1.779-1.315,2.013a7.021,7.021,0,0,1-2.465.235c-1.573,0-2.066-.066-2.512-.37-.822-.537-1.127-1.577-1.127-3.724V79.389a8.978,8.978,0,0,1,.258-3.085,1.881,1.881,0,0,1,1.5-1.476,14.134,14.134,0,0,1,2.043-.1c2.137,0,2.606.135,3.124.874a3.9,3.9,0,0,1,.563,1.945c.048.737.048,1.208.048,3.925Zm-4.251.9v.973c0,.838.141,1.207.493,1.207.305,0,.447-.3.447-1.04V79.389c0-.671-.142-.972-.447-.972-.234,0-.422.2-.469.6-.024.135-.024.638-.024,1.342Z" transform="translate(1.113 2.613)" fill="#005e53"/>
      <path id="Trazado_434" data-name="Trazado 434" d="M44.2,82.51V79.86a4.533,4.533,0,0,0-.069-1.106c-.094-.235-.236-.4-.4-.4a.519.519,0,0,0-.422.4,4.368,4.368,0,0,0-.071,1.106V81.5a1.5,1.5,0,0,0,.751,1.475l1.409,1.108c1.856,1.475,2.114,2.078,2.114,5.1v3.588c0,1.945-.094,2.583-.471,3.288-.516,1.006-1.079,1.208-3.522,1.208-1.949,0-2.488-.168-3.006-1.007a3.78,3.78,0,0,1-.516-1.844c-.048-.437-.048-.941-.048-2.45V87.945h3.288v4.326c0,.907.141,1.275.494,1.275.305,0,.469-.368.469-1.006V89.489l-.024-.47c-.022-.839-.093-1.006-.657-1.443-.21-.168-.376-.27-.4-.3L41.73,86.166c-1.527-1.241-1.785-1.945-1.785-4.73V78.819c0-1.844.142-2.65.634-3.287.516-.671,1.127-.838,3.405-.838,2,0,2.536.2,3.028,1.142.4.737.495,1.441.495,3.522V82.51Z" transform="translate(1.397 2.612)" fill="#005e53"/>
      <path id="Trazado_435" data-name="Trazado 435" d="M52.349,82.51V79.928c0-1.275-.118-1.577-.517-1.577s-.446.268-.446,1.778V92.4c-.023.805.118,1.142.47,1.142.4,0,.494-.336.494-1.711V87.744h3.286v5.165c0,1.88-.164,2.819-.633,3.49-.493.671-1.127.872-2.959.872-2.489,0-3.123-.269-3.616-1.409a5.763,5.763,0,0,1-.328-2.45c-.023-.5-.023-1.544-.023-2.584v-10.9c0-2.887.092-3.457.587-4.262.539-.837.939-.972,2.888-.972,2.536,0,3.053.135,3.546,1.006.446.771.539,1.409.539,3.858V82.51Z" transform="translate(1.681 2.612)" fill="#005e53"/>
      <rect id="Rectángulo_1185" data-name="Rectángulo 1185" width="3.31" height="22.376" transform="translate(58.297 77.441)" fill="#005e53"/>
      <path id="Trazado_436" data-name="Trazado 436" d="M68.043,97.2H64.919l-.258-4.43H63.394l-.235,4.43h-3.1l1.972-22.376h4.062ZM64.027,80.393l-.446,8.689h.892Z" transform="translate(2.101 2.617)" fill="#005e53"/>
      <path id="Trazado_437" data-name="Trazado 437" d="M92.908,3.05a5.192,5.192,0,0,1,4.853,3.118c4.639,8.7,28.252,55.991,31.328,62.222,3.284,6.649-.175,8.569-5.093,10.635-3.43,1.442-71.144,29.769-76.72,32.077-2.458,1.018-4.338,1.687-5.929,1.687-2.02,0-3.578-1.075-5.269-3.873-3.025-5-30.252-59.565-31.78-62.594s-2.563-6.157,1.857-8.26c0,0,75.794-31.363,79.969-33.079,2.223-.914,4.623-1.933,6.784-1.933m0-1.732c-2.431,0-4.975,1.047-7.221,1.972l-.221.091c-4.13,1.7-79.216,32.766-79.974,33.08l-.041.018-.04.02a6.9,6.9,0,0,0-3.865,3.847c-.782,2.284.117,4.6,1.206,6.756.194.383.8,1.594,1.716,3.426C11.257,64.1,31.918,105.384,34.6,109.812c1.325,2.192,3.289,4.708,6.751,4.708,1.842,0,3.813-.667,6.593-1.818,5.376-2.226,73.31-30.645,76.728-32.081,3.123-1.312,6.011-2.721,7.053-5.513.758-2.032.406-4.48-1.078-7.485-2.683-5.434-26.679-53.5-31.354-62.269a6.891,6.891,0,0,0-6.381-4.035" transform="translate(0.044 0.046)" fill="#005e53"/>
    </g>
  </g>
</svg>
